<svg xmlns="http://www.w3.org/2000/svg" xmlns:xlink="http://www.w3.org/1999/xlink" viewBox="0 0 1387.54 838.99"><defs><style>.cls-1{fill:url(#New_Gradient_Swatch)}.cls-2{fill:url(#New_Gradient_Swatch-2)}.cls-3{fill:url(#New_Gradient_Swatch-3)}.cls-4{fill:url(#New_Gradient_Swatch-4)}.cls-5{fill:url(#New_Gradient_Swatch-5)}.cls-6{fill:url(#New_Gradient_Swatch-6)}.cls-7{isolation:isolate}.cls-8{clip-path:url(#clip-path)}.cls-9{fill:url(#New_Gradient_Swatch-8)}.cls-10{fill:url(#New_Gradient_Swatch-9)}.cls-11{fill:url(#New_Gradient_Swatch-10)}.cls-12{fill:url(#New_Gradient_Swatch-11)}.cls-13{fill:url(#New_Gradient_Swatch-12)}.cls-14{fill:url(#New_Gradient_Swatch-13)}.cls-15{fill:url(#New_Gradient_Swatch-14)}.cls-16{fill:url(#New_Gradient_Swatch-15)}.cls-17{fill:url(#New_Gradient_Swatch-16)}.cls-18{fill:url(#New_Gradient_Swatch-17)}.cls-19{fill:url(#New_Gradient_Swatch-18)}.cls-20{fill:url(#New_Gradient_Swatch-19)}.cls-21{fill:url(#New_Gradient_Swatch-20)}.cls-22{fill:url(#New_Gradient_Swatch-21)}.cls-23{fill:url(#New_Gradient_Swatch-22)}.cls-24{fill:url(#New_Gradient_Swatch-23)}.cls-25{fill:url(#New_Gradient_Swatch-24)}.cls-26{fill:url(#New_Gradient_Swatch-25)}.cls-27{fill:url(#New_Gradient_Swatch-26)}.cls-28{fill:url(#New_Gradient_Swatch-27)}.cls-29{fill:url(#New_Gradient_Swatch-28)}.cls-30{fill:url(#New_Gradient_Swatch-29)}.cls-31{fill:url(#New_Gradient_Swatch-30)}.cls-32{fill:url(#New_Gradient_Swatch-31)}.cls-33{fill:url(#New_Gradient_Swatch-32)}.cls-34{fill:url(#New_Gradient_Swatch-33)}.cls-35{fill:url(#New_Gradient_Swatch-34)}.cls-36{clip-path:url(#clip-path-2)}.cls-37{fill:url(#New_Gradient_Swatch-36)}.cls-38{fill:url(#New_Gradient_Swatch-37)}.cls-39{fill:url(#New_Gradient_Swatch-38)}.cls-40{fill:url(#New_Gradient_Swatch-39)}.cls-41{fill:url(#New_Gradient_Swatch-40)}.cls-42{fill:url(#New_Gradient_Swatch-41)}.cls-43{fill:url(#New_Gradient_Swatch-42)}.cls-44{fill:url(#New_Gradient_Swatch-43)}.cls-45{clip-path:url(#clip-path-3)}.cls-46{fill:url(#New_Gradient_Swatch-45)}.cls-47{clip-path:url(#clip-path-4)}.cls-48{fill:url(#New_Gradient_Swatch-47)}.cls-49{fill:url(#New_Gradient_Swatch-48)}.cls-50{fill:url(#New_Gradient_Swatch-49)}.cls-51{fill:url(#New_Gradient_Swatch-50)}.cls-52{fill:url(#New_Gradient_Swatch-51)}.cls-53{fill:url(#New_Gradient_Swatch-52)}.cls-54{fill:url(#New_Gradient_Swatch-53)}.cls-55{fill:url(#New_Gradient_Swatch-54)}.cls-56{fill:url(#New_Gradient_Swatch-55)}.cls-57{fill:url(#New_Gradient_Swatch-56)}.cls-58{fill:url(#New_Gradient_Swatch-57)}.cls-59{fill:url(#New_Gradient_Swatch-58)}.cls-60{fill:url(#New_Gradient_Swatch-59)}.cls-61{fill:url(#New_Gradient_Swatch-60)}.cls-62{fill:url(#New_Gradient_Swatch-61)}.cls-63{fill:url(#New_Gradient_Swatch-62)}.cls-64{fill:url(#New_Gradient_Swatch-63)}.cls-65{fill:url(#New_Gradient_Swatch-64)}.cls-66{fill:url(#New_Gradient_Swatch-65)}.cls-67{fill:url(#New_Gradient_Swatch-66)}.cls-68{fill:url(#New_Gradient_Swatch-67)}.cls-69{fill:url(#New_Gradient_Swatch-68)}.cls-70{fill:url(#New_Gradient_Swatch-69)}.cls-71{fill:url(#New_Gradient_Swatch-70)}.cls-72{fill:url(#New_Gradient_Swatch-71)}.cls-73{fill:url(#New_Gradient_Swatch-72)}.cls-74{fill:url(#New_Gradient_Swatch-73)}.cls-75{fill:url(#New_Gradient_Swatch-74)}.cls-76{fill:url(#New_Gradient_Swatch-75)}.cls-77{fill:url(#New_Gradient_Swatch-76)}.cls-78{fill:url(#New_Gradient_Swatch-77)}.cls-79{fill:url(#New_Gradient_Swatch-78)}.cls-80{fill:url(#New_Gradient_Swatch-79)}.cls-81{fill:url(#New_Gradient_Swatch-80)}.cls-82{fill:url(#New_Gradient_Swatch-81)}.cls-83{fill:url(#New_Gradient_Swatch-82)}.cls-84{fill:url(#New_Gradient_Swatch-83)}.cls-85{fill:url(#New_Gradient_Swatch-84)}.cls-86{fill:url(#New_Gradient_Swatch-85)}.cls-87{fill:url(#New_Gradient_Swatch-86)}.cls-88{clip-path:url(#clip-path-5)}.cls-89{fill:url(#New_Gradient_Swatch-88)}.cls-90{fill:url(#New_Gradient_Swatch-89)}.cls-91{fill:url(#New_Gradient_Swatch-90)}.cls-92{fill:url(#New_Gradient_Swatch-91)}.cls-93{fill:url(#New_Gradient_Swatch-92)}.cls-94{fill:url(#New_Gradient_Swatch-93)}.cls-95{fill:url(#New_Gradient_Swatch-94)}.cls-96{fill:url(#New_Gradient_Swatch-95)}.cls-97{fill:url(#New_Gradient_Swatch-96)}.cls-98{clip-path:url(#clip-path-6)}.cls-99{fill:url(#New_Gradient_Swatch-98)}.cls-100{fill:url(#New_Gradient_Swatch-99)}.cls-101{fill:url(#New_Gradient_Swatch-100)}.cls-102{fill:url(#New_Gradient_Swatch-101)}.cls-103{fill:url(#New_Gradient_Swatch-102)}.cls-104{fill:url(#New_Gradient_Swatch-103)}.cls-105{fill:url(#New_Gradient_Swatch-104)}.cls-106{fill:url(#New_Gradient_Swatch-105)}.cls-107{fill:url(#New_Gradient_Swatch-106)}.cls-108{fill:url(#New_Gradient_Swatch-107)}.cls-109{fill:url(#New_Gradient_Swatch-108)}.cls-110{fill:url(#New_Gradient_Swatch-109)}.cls-111{fill:url(#New_Gradient_Swatch-110)}.cls-112{fill:url(#New_Gradient_Swatch-111)}.cls-113{fill:url(#New_Gradient_Swatch-112)}.cls-114{fill:url(#New_Gradient_Swatch-113)}.cls-115{fill:url(#New_Gradient_Swatch-114)}.cls-116{fill:url(#New_Gradient_Swatch-115)}.cls-117{fill:url(#New_Gradient_Swatch-116)}.cls-118{fill:url(#New_Gradient_Swatch-117)}</style><linearGradient id="New_Gradient_Swatch" x1="1400.47" y1="2665.94" x2="362.21" y2="3009.83" gradientTransform="rotate(-20.72 -5600.518 1608.874)" gradientUnits="userSpaceOnUse"><stop offset="0" stop-color="#27dbe0"/><stop offset=".5" stop-color="#00a99d"/><stop offset="1" stop-color="#22b573"/></linearGradient><linearGradient id="New_Gradient_Swatch-2" x1="1388.17" y1="2755.28" x2="446.07" y2="3067.32" xlink:href="#New_Gradient_Swatch"/><linearGradient id="New_Gradient_Swatch-3" x1="1349.82" y1="2639.5" x2="407.72" y2="2951.54" xlink:href="#New_Gradient_Swatch"/><linearGradient id="New_Gradient_Swatch-4" x1="934.25" y1="2542.09" x2="622.27" y2="2840.58" xlink:href="#New_Gradient_Swatch"/><linearGradient id="New_Gradient_Swatch-5" x1="66.41" y1="2714.28" x2="549.38" y2="2378.67" xlink:href="#New_Gradient_Swatch"/><linearGradient id="New_Gradient_Swatch-6" x1="58.56" y1="2702.98" x2="541.53" y2="2367.37" xlink:href="#New_Gradient_Swatch"/><clipPath id="clip-path"><path class="cls-1" d="M1082 452.93l-48.88-6.72c22.2-12.15 36-37.19 47.2-57.43 22.57-40.86 40.68-92.41 58.19-142.28 31.93-90.89 67.63-179.93 126.34-218.27 15.51-10.13 69.63-39 115.6-23.94l7.09 18.71c-35.14-8.09-67.6 8.55-73.8 12-61.49 33.7-94.4 127.38-126.34 218.27-17.52 49.87-35.62 101.43-58.19 142.28-11.21 20.19-25 45.23-47.21 57.38z"/></clipPath><linearGradient id="New_Gradient_Swatch-8" x1="1390.91" y1="2763.58" x2="448.82" y2="3075.61" xlink:href="#New_Gradient_Swatch"/><linearGradient id="New_Gradient_Swatch-9" x1="1391.03" y1="2763.94" x2="448.94" y2="3075.97" xlink:href="#New_Gradient_Swatch"/><linearGradient id="New_Gradient_Swatch-10" x1="1390.86" y1="2763.41" x2="448.76" y2="3075.44" xlink:href="#New_Gradient_Swatch"/><linearGradient id="New_Gradient_Swatch-11" x1="1390.55" y1="2762.48" x2="448.46" y2="3074.51" xlink:href="#New_Gradient_Swatch"/><linearGradient id="New_Gradient_Swatch-12" x1="1390.12" y1="2761.18" x2="448.02" y2="3073.21" xlink:href="#New_Gradient_Swatch"/><linearGradient id="New_Gradient_Swatch-13" x1="1389.53" y1="2759.41" x2="447.44" y2="3071.44" xlink:href="#New_Gradient_Swatch"/><linearGradient id="New_Gradient_Swatch-14" x1="1388.7" y1="2756.91" x2="446.61" y2="3068.94" xlink:href="#New_Gradient_Swatch"/><linearGradient id="New_Gradient_Swatch-15" x1="1387.04" y1="2751.89" x2="444.95" y2="3063.93" xlink:href="#New_Gradient_Swatch"/><linearGradient id="New_Gradient_Swatch-16" x1="1384.87" y1="2745.34" x2="442.78" y2="3057.37" xlink:href="#New_Gradient_Swatch"/><linearGradient id="New_Gradient_Swatch-17" x1="1382.54" y1="2738.3" x2="440.44" y2="3050.33" xlink:href="#New_Gradient_Swatch"/><linearGradient id="New_Gradient_Swatch-18" x1="1379.28" y1="2728.44" x2="437.18" y2="3040.47" xlink:href="#New_Gradient_Swatch"/><linearGradient id="New_Gradient_Swatch-19" x1="1373.95" y1="2712.35" x2="431.85" y2="3024.38" xlink:href="#New_Gradient_Swatch"/><linearGradient id="New_Gradient_Swatch-20" x1="1362.91" y1="2679.04" x2="420.82" y2="2991.07" xlink:href="#New_Gradient_Swatch"/><linearGradient id="New_Gradient_Swatch-21" x1="1351.89" y1="2645.75" x2="409.79" y2="2957.78" xlink:href="#New_Gradient_Swatch"/><linearGradient id="New_Gradient_Swatch-22" x1="1346.56" y1="2629.67" x2="404.47" y2="2941.71" xlink:href="#New_Gradient_Swatch"/><linearGradient id="New_Gradient_Swatch-23" x1="1343.28" y1="2619.76" x2="401.19" y2="2931.79" xlink:href="#New_Gradient_Swatch"/><linearGradient id="New_Gradient_Swatch-24" x1="1340.9" y1="2612.58" x2="398.81" y2="2924.61" xlink:href="#New_Gradient_Swatch"/><linearGradient id="New_Gradient_Swatch-25" x1="1339.07" y1="2607.06" x2="396.98" y2="2919.09" xlink:href="#New_Gradient_Swatch"/><linearGradient id="New_Gradient_Swatch-26" x1="1337.64" y1="2602.73" x2="395.54" y2="2914.76" xlink:href="#New_Gradient_Swatch"/><linearGradient id="New_Gradient_Swatch-27" x1="1336.5" y1="2599.29" x2="394.41" y2="2911.33" xlink:href="#New_Gradient_Swatch"/><linearGradient id="New_Gradient_Swatch-28" x1="1335.6" y1="2596.57" x2="393.5" y2="2908.6" xlink:href="#New_Gradient_Swatch"/><linearGradient id="New_Gradient_Swatch-29" x1="1334.89" y1="2594.44" x2="392.8" y2="2906.47" xlink:href="#New_Gradient_Swatch"/><linearGradient id="New_Gradient_Swatch-30" x1="1334.37" y1="2592.88" x2="392.28" y2="2904.91" xlink:href="#New_Gradient_Swatch"/><linearGradient id="New_Gradient_Swatch-31" x1="1334.07" y1="2591.97" x2="391.98" y2="2904" xlink:href="#New_Gradient_Swatch"/><linearGradient id="New_Gradient_Swatch-32" x1="1334.33" y1="2592.73" x2="392.23" y2="2904.76" xlink:href="#New_Gradient_Swatch"/><linearGradient id="New_Gradient_Swatch-33" x1="1334.79" y1="2594.13" x2="392.7" y2="2906.16" xlink:href="#New_Gradient_Swatch"/><linearGradient id="New_Gradient_Swatch-34" x1="1335.66" y1="2596.77" x2="393.57" y2="2908.8" xlink:href="#New_Gradient_Swatch"/><clipPath id="clip-path-2"><path class="cls-2" d="M1049.32 458.32l-48.88-6.72a53.79 53.79 0 0 0 32.69-5.4l48.88 6.72a53.79 53.79 0 0 1-32.69 5.4z"/></clipPath><linearGradient id="New_Gradient_Swatch-36" x1="1385.69" y1="2747.81" x2="443.6" y2="3059.84" xlink:href="#New_Gradient_Swatch"/><linearGradient id="New_Gradient_Swatch-37" x1="1386.18" y1="2749.3" x2="444.09" y2="3061.33" xlink:href="#New_Gradient_Swatch"/><linearGradient id="New_Gradient_Swatch-38" x1="1386.95" y1="2751.6" x2="444.85" y2="3063.64" xlink:href="#New_Gradient_Swatch"/><linearGradient id="New_Gradient_Swatch-39" x1="1387.69" y1="2753.84" x2="445.59" y2="3065.87" xlink:href="#New_Gradient_Swatch"/><linearGradient id="New_Gradient_Swatch-40" x1="1388.42" y1="2756.04" x2="446.32" y2="3068.07" xlink:href="#New_Gradient_Swatch"/><linearGradient id="New_Gradient_Swatch-41" x1="1389.17" y1="2758.31" x2="447.07" y2="3070.34" xlink:href="#New_Gradient_Swatch"/><linearGradient id="New_Gradient_Swatch-42" x1="1390.14" y1="2761.25" x2="448.09" y2="3073.27" xlink:href="#New_Gradient_Swatch"/><linearGradient id="New_Gradient_Swatch-43" x1="1390.74" y1="2763.05" x2="448.64" y2="3075.08" xlink:href="#New_Gradient_Swatch"/><clipPath id="clip-path-3"><path class="cls-3" d="M1052.33 458.63l-48.88-6.72c-19.5-2.68-37.55-14.13-50-26.5-15-14.88-27-33.52-38.66-51.57-5.86-9.08-11.92-18.45-18.27-27.24-22-30.48-45.11-47.52-68.63-50.75l48.88 6.72c23.52 3.23 46.59 20.27 68.63 50.75 6.35 8.79 12.41 18.16 18.27 27.24 11.64 18 23.68 36.69 38.66 51.57 12.44 12.37 30.49 23.82 50 26.5z"/></clipPath><linearGradient id="New_Gradient_Swatch-45" x1="838.35" y1="2536.72" x2="1003.34" y2="2877.2" xlink:href="#New_Gradient_Swatch"/><clipPath id="clip-path-4"><path class="cls-4" d="M483.93 838.35l-48.88-6.72a65 65 0 0 0 25.77-1.53 72.22 72.22 0 0 0 16.07-6.49c32.82-18 54.44-60.41 72.38-99.85 15.9-35 31.72-71.17 47-106.17 30.61-70 62.28-142.46 96.16-208.65 14.94-29.18 29.92-52.25 48.58-74.78 10.78-13 22.77-23.16 35.15-29.94 12.94-7.09 26.3-10.53 39.17-9.82q2.51.14 5 .48l48.88 6.72q-2.51-.34-5-.48c-12.86-.71-26.23 2.73-39.17 9.82-12.38 6.78-24.36 16.91-35.15 29.94-18.66 22.53-33.64 45.6-48.58 74.78-33.88 66.19-65.55 138.61-96.16 208.65-15.32 35-31.13 71.2-47 106.17-17.94 39.44-39.56 81.86-72.38 99.85a72.22 72.22 0 0 1-16.07 6.49 65 65 0 0 1-25.77 1.53z"/></clipPath><linearGradient id="New_Gradient_Swatch-47" x1="894.42" y1="2500.46" x2="582.43" y2="2798.95" xlink:href="#New_Gradient_Swatch"/><linearGradient id="New_Gradient_Swatch-48" x1="896.04" y1="2502.16" x2="584.06" y2="2800.64" xlink:href="#New_Gradient_Swatch"/><linearGradient id="New_Gradient_Swatch-49" x1="898.64" y1="2504.87" x2="586.66" y2="2803.36" xlink:href="#New_Gradient_Swatch"/><linearGradient id="New_Gradient_Swatch-50" x1="901.34" y1="2507.69" x2="589.35" y2="2806.17" xlink:href="#New_Gradient_Swatch"/><linearGradient id="New_Gradient_Swatch-51" x1="904.21" y1="2510.69" x2="592.22" y2="2809.18" xlink:href="#New_Gradient_Swatch"/><linearGradient id="New_Gradient_Swatch-52" x1="907.44" y1="2514.07" x2="595.45" y2="2812.55" xlink:href="#New_Gradient_Swatch"/><linearGradient id="New_Gradient_Swatch-53" x1="912.72" y1="2519.59" x2="600.74" y2="2818.08" xlink:href="#New_Gradient_Swatch"/><linearGradient id="New_Gradient_Swatch-54" x1="916.82" y1="2523.88" x2="604.84" y2="2822.36" xlink:href="#New_Gradient_Swatch"/><linearGradient id="New_Gradient_Swatch-55" x1="920.35" y1="2527.56" x2="608.36" y2="2826.05" xlink:href="#New_Gradient_Swatch"/><linearGradient id="New_Gradient_Swatch-56" x1="924.57" y1="2531.97" x2="612.58" y2="2830.46" xlink:href="#New_Gradient_Swatch"/><linearGradient id="New_Gradient_Swatch-57" x1="926.73" y1="2534.23" x2="614.74" y2="2832.71" xlink:href="#New_Gradient_Swatch"/><linearGradient id="New_Gradient_Swatch-58" x1="928.38" y1="2535.95" x2="616.39" y2="2834.44" xlink:href="#New_Gradient_Swatch"/><linearGradient id="New_Gradient_Swatch-59" x1="929.73" y1="2537.37" x2="617.74" y2="2835.85" xlink:href="#New_Gradient_Swatch"/><linearGradient id="New_Gradient_Swatch-60" x1="930.86" y1="2538.55" x2="618.87" y2="2837.03" xlink:href="#New_Gradient_Swatch"/><linearGradient id="New_Gradient_Swatch-61" x1="931.79" y1="2539.53" x2="619.81" y2="2838.01" xlink:href="#New_Gradient_Swatch"/><linearGradient id="New_Gradient_Swatch-62" x1="932.54" y1="2540.31" x2="620.56" y2="2838.79" xlink:href="#New_Gradient_Swatch"/><linearGradient id="New_Gradient_Swatch-63" x1="933.05" y1="2540.84" x2="621.07" y2="2839.33" xlink:href="#New_Gradient_Swatch"/><linearGradient id="New_Gradient_Swatch-64" x1="933.14" y1="2540.94" x2="621.16" y2="2839.42" xlink:href="#New_Gradient_Swatch"/><linearGradient id="New_Gradient_Swatch-65" x1="930.86" y1="2538.55" x2="618.88" y2="2837.04" xlink:href="#New_Gradient_Swatch"/><linearGradient id="New_Gradient_Swatch-66" x1="928.44" y1="2536.02" x2="616.45" y2="2834.5" xlink:href="#New_Gradient_Swatch"/><linearGradient id="New_Gradient_Swatch-67" x1="928.67" y1="2536.27" x2="616.69" y2="2834.75" xlink:href="#New_Gradient_Swatch"/><linearGradient id="New_Gradient_Swatch-68" x1="929.49" y1="2537.12" x2="617.51" y2="2835.6" xlink:href="#New_Gradient_Swatch"/><linearGradient id="New_Gradient_Swatch-69" x1="930.61" y1="2538.29" x2="618.63" y2="2836.78" xlink:href="#New_Gradient_Swatch"/><linearGradient id="New_Gradient_Swatch-70" x1="932.2" y1="2539.95" x2="620.22" y2="2838.44" xlink:href="#New_Gradient_Swatch"/><linearGradient id="New_Gradient_Swatch-71" x1="934.46" y1="2542.31" x2="622.47" y2="2840.79" xlink:href="#New_Gradient_Swatch"/><linearGradient id="New_Gradient_Swatch-72" x1="936.81" y1="2544.77" x2="624.83" y2="2843.25" xlink:href="#New_Gradient_Swatch"/><linearGradient id="New_Gradient_Swatch-73" x1="938.84" y1="2546.89" x2="626.86" y2="2845.38" xlink:href="#New_Gradient_Swatch"/><linearGradient id="New_Gradient_Swatch-74" x1="941.32" y1="2549.48" x2="629.34" y2="2847.97" xlink:href="#New_Gradient_Swatch"/><linearGradient id="New_Gradient_Swatch-75" x1="946.53" y1="2554.93" x2="634.54" y2="2853.41" xlink:href="#New_Gradient_Swatch"/><linearGradient id="New_Gradient_Swatch-76" x1="950.88" y1="2559.47" x2="638.9" y2="2857.96" xlink:href="#New_Gradient_Swatch"/><linearGradient id="New_Gradient_Swatch-77" x1="955.56" y1="2564.37" x2="643.58" y2="2862.85" xlink:href="#New_Gradient_Swatch"/><linearGradient id="New_Gradient_Swatch-78" x1="961.54" y1="2570.62" x2="649.55" y2="2869.1" xlink:href="#New_Gradient_Swatch"/><linearGradient id="New_Gradient_Swatch-79" x1="964.96" y1="2574.19" x2="652.98" y2="2872.68" xlink:href="#New_Gradient_Swatch"/><linearGradient id="New_Gradient_Swatch-80" x1="967.79" y1="2577.15" x2="655.8" y2="2875.63" xlink:href="#New_Gradient_Swatch"/><linearGradient id="New_Gradient_Swatch-81" x1="970.28" y1="2579.76" x2="658.3" y2="2878.24" xlink:href="#New_Gradient_Swatch"/><linearGradient id="New_Gradient_Swatch-82" x1="972.64" y1="2582.22" x2="660.66" y2="2880.71" xlink:href="#New_Gradient_Swatch"/><linearGradient id="New_Gradient_Swatch-83" x1="974.12" y1="2583.76" x2="662.13" y2="2882.25" xlink:href="#New_Gradient_Swatch"/><linearGradient id="New_Gradient_Swatch-84" x1="286.33" y1="3038.8" x2="377.6" y2="2636.95" xlink:href="#New_Gradient_Swatch"/><linearGradient id="New_Gradient_Swatch-85" x1="265" y1="3033.95" x2="356.27" y2="2632.11" xlink:href="#New_Gradient_Swatch"/><linearGradient id="New_Gradient_Swatch-86" x1="226.84" y1="3025.29" x2="318.11" y2="2623.44" xlink:href="#New_Gradient_Swatch"/><clipPath id="clip-path-5"><path class="cls-5" d="M230.91 433.57l48.88 6.72c-21.93-3-43.2 3.47-62.11 13.83l-48.88-6.72c18.9-10.4 40.2-16.84 62.11-13.83z"/></clipPath><linearGradient id="New_Gradient_Swatch-88" x1="54.36" y1="2696.94" x2="537.33" y2="2361.33" xlink:href="#New_Gradient_Swatch"/><linearGradient id="New_Gradient_Swatch-89" x1="55.29" y1="2698.28" x2="538.26" y2="2362.67" xlink:href="#New_Gradient_Swatch"/><linearGradient id="New_Gradient_Swatch-90" x1="59.97" y1="2705.02" x2="542.94" y2="2369.41" xlink:href="#New_Gradient_Swatch"/><linearGradient id="New_Gradient_Swatch-91" x1="65.92" y1="2713.58" x2="548.89" y2="2377.97" xlink:href="#New_Gradient_Swatch"/><linearGradient id="New_Gradient_Swatch-92" x1="69.31" y1="2718.45" x2="552.28" y2="2382.84" xlink:href="#New_Gradient_Swatch"/><linearGradient id="New_Gradient_Swatch-93" x1="72.14" y1="2722.52" x2="555.11" y2="2386.92" xlink:href="#New_Gradient_Swatch"/><linearGradient id="New_Gradient_Swatch-94" x1="74.67" y1="2726.18" x2="557.65" y2="2390.57" xlink:href="#New_Gradient_Swatch"/><linearGradient id="New_Gradient_Swatch-95" x1="77.04" y1="2729.58" x2="560.02" y2="2393.98" xlink:href="#New_Gradient_Swatch"/><linearGradient id="New_Gradient_Swatch-96" x1="78.49" y1="2731.67" x2="561.46" y2="2396.06" xlink:href="#New_Gradient_Swatch"/><clipPath id="clip-path-6"><path class="cls-6" d="M48.88 770.78L0 764.06c6.09-101.62 47.9-200.52 113.08-271.39 12.88-14 32.51-32.55 55.72-45.26l48.88 6.72c-23.2 12.71-42.84 31.27-55.72 45.26C96.78 570.26 55 669.15 48.88 770.78z"/></clipPath><linearGradient id="New_Gradient_Swatch-98" x1="75.47" y1="2727.33" x2="558.45" y2="2391.72" xlink:href="#New_Gradient_Swatch"/><linearGradient id="New_Gradient_Swatch-99" x1="71.46" y1="2721.55" x2="554.43" y2="2385.94" xlink:href="#New_Gradient_Swatch"/><linearGradient id="New_Gradient_Swatch-100" x1="66.65" y1="2714.63" x2="549.63" y2="2379.02" xlink:href="#New_Gradient_Swatch"/><linearGradient id="New_Gradient_Swatch-101" x1="62.4" y1="2708.51" x2="545.37" y2="2372.9" xlink:href="#New_Gradient_Swatch"/><linearGradient id="New_Gradient_Swatch-102" x1="58.6" y1="2703.04" x2="541.57" y2="2367.43" xlink:href="#New_Gradient_Swatch"/><linearGradient id="New_Gradient_Swatch-103" x1="55.2" y1="2698.16" x2="538.18" y2="2362.55" xlink:href="#New_Gradient_Swatch"/><linearGradient id="New_Gradient_Swatch-104" x1="52.17" y1="2693.8" x2="535.15" y2="2358.19" xlink:href="#New_Gradient_Swatch"/><linearGradient id="New_Gradient_Swatch-105" x1="49.49" y1="2689.94" x2="532.46" y2="2354.33" xlink:href="#New_Gradient_Swatch"/><linearGradient id="New_Gradient_Swatch-106" x1="47.14" y1="2686.55" x2="530.11" y2="2350.94" xlink:href="#New_Gradient_Swatch"/><linearGradient id="New_Gradient_Swatch-107" x1="45.11" y1="2683.63" x2="528.08" y2="2348.02" xlink:href="#New_Gradient_Swatch"/><linearGradient id="New_Gradient_Swatch-108" x1="43.41" y1="2681.19" x2="526.39" y2="2345.58" xlink:href="#New_Gradient_Swatch"/><linearGradient id="New_Gradient_Swatch-109" x1="42.05" y1="2679.23" x2="525.02" y2="2343.62" xlink:href="#New_Gradient_Swatch"/><linearGradient id="New_Gradient_Swatch-110" x1="41.05" y1="2677.78" x2="524.02" y2="2342.17" xlink:href="#New_Gradient_Swatch"/><linearGradient id="New_Gradient_Swatch-111" x1="40.43" y1="2676.89" x2="523.4" y2="2341.28" xlink:href="#New_Gradient_Swatch"/><linearGradient id="New_Gradient_Swatch-112" x1="40.22" y1="2676.59" x2="523.19" y2="2340.98" xlink:href="#New_Gradient_Swatch"/><linearGradient id="New_Gradient_Swatch-113" x1="40.56" y1="2677.09" x2="523.54" y2="2341.48" xlink:href="#New_Gradient_Swatch"/><linearGradient id="New_Gradient_Swatch-114" x1="41.52" y1="2678.46" x2="524.49" y2="2342.85" xlink:href="#New_Gradient_Swatch"/><linearGradient id="New_Gradient_Swatch-115" x1="43.08" y1="2680.71" x2="526.06" y2="2345.11" xlink:href="#New_Gradient_Swatch"/><linearGradient id="New_Gradient_Swatch-116" x1="45.46" y1="2684.14" x2="528.44" y2="2348.53" xlink:href="#New_Gradient_Swatch"/><linearGradient id="New_Gradient_Swatch-117" x1="50.48" y1="2691.36" x2="533.46" y2="2355.76" xlink:href="#New_Gradient_Swatch"/></defs><title>bow2</title><g id="Layer_2" data-name="Layer 2"><g id="web"><g class="cls-7"><g class="cls-7"><path class="cls-1" d="M1082 452.93l-48.88-6.72c22.2-12.15 36-37.19 47.2-57.43 22.57-40.86 40.68-92.41 58.19-142.28 31.93-90.89 67.63-179.93 126.34-218.27 15.51-10.13 69.63-39 115.6-23.94l7.09 18.71c-35.14-8.09-67.6 8.55-73.8 12-61.49 33.7-94.4 127.38-126.34 218.27-17.52 49.87-35.62 101.43-58.19 142.28-11.21 20.19-25 45.23-47.21 57.38z"/><g class="cls-8"><g class="cls-7"><path class="cls-9" d="M1082 452.93l-48.88-6.72a68.67 68.67 0 0 0 10.38-7l48.88 6.72a68.67 68.67 0 0 1-10.38 7"/><path class="cls-10" d="M1092.4 445.89l-48.88-6.72q2.78-2.27 5.37-4.79l48.88 6.72q-2.59 2.51-5.37 4.79"/><path class="cls-11" d="M1097.77 441.11l-48.88-6.72q2.3-2.23 4.45-4.62l48.88 6.72q-2.16 2.39-4.45 4.62"/><path class="cls-12" d="M1102.22 436.49l-48.88-6.72q2.13-2.36 4.14-4.86l48.88 6.72q-2 2.49-4.14 4.86"/><path class="cls-13" d="M1106.35 431.63l-48.88-6.72q2.12-2.63 4.11-5.37l48.88 6.72q-2 2.74-4.11 5.37"/><path class="cls-14" d="M1110.46 426.26l-48.88-6.72q2.25-3.1 4.35-6.3l48.88 6.72q-2.1 3.19-4.35 6.3"/><path class="cls-15" d="M1114.81 420l-48.88-6.72c1.78-2.7 3.48-5.42 5.11-8.15l48.88 6.72c-1.63 2.72-3.33 5.45-5.11 8.15"/><path class="cls-16" d="M1119.93 411.82L1071 405.1c3.34-5.56 6.4-11.1 9.28-16.33l.81-1.48L1130 394l-.81 1.48c-2.89 5.22-5.95 10.77-9.28 16.33"/><path class="cls-17" d="M1130 394l-48.88-6.72q3.76-6.88 7.36-14.14l48.88 6.72q-3.6 7.25-7.36 14.14"/><path class="cls-18" d="M1137.38 379.87l-48.88-6.72q4.29-8.64 8.39-17.74l48.88 6.72q-4.1 9.08-8.39 17.74"/><path class="cls-19" d="M1145.77 362.13l-48.88-6.72c3.54-7.86 7-15.94 10.34-24.18l48.88 6.72c-3.36 8.24-6.8 16.32-10.34 24.18"/><path class="cls-20" d="M1156.11 338l-48.88-6.72c5.36-13.16 10.51-26.74 15.53-40.46l48.88 6.72c-5 13.72-10.17 27.29-15.53 40.46"/><path class="cls-21" d="M1171.64 297.5l-48.88-6.72c5.37-14.7 10.6-29.56 15.77-44.29 5.11-14.55 10.25-29.18 15.53-43.61l48.88 6.72c-5.28 14.44-10.41 29.06-15.53 43.61-5.17 14.72-10.39 29.59-15.77 44.29"/><path class="cls-22" d="M1202.93 209.6l-48.88-6.72c5-13.68 10.13-27.2 15.47-40.33l48.88 6.72c-5.35 13.13-10.47 26.65-15.47 40.33"/><path class="cls-23" d="M1218.4 169.26l-48.88-6.72q5-12.38 10.36-24.24l48.88 6.72q-5.34 11.84-10.36 24.24"/><path class="cls-24" d="M1228.77 145l-48.88-6.72q4.13-9.16 8.47-17.92l48.88 6.72q-4.35 8.75-8.47 17.92"/><path class="cls-25" d="M1237.23 127.1l-48.88-6.72q3.71-7.46 7.59-14.58l48.88 6.72q-3.89 7.11-7.59 14.58"/><path class="cls-26" d="M1244.82 112.51l-48.88-6.72q3.42-6.27 7-12.24l48.88 6.72q-3.58 6-7 12.24"/><path class="cls-27" d="M1251.83 100.27l-48.88-6.72q3.26-5.43 6.66-10.58l48.88 6.72q-3.4 5.15-6.66 10.58"/><path class="cls-28" d="M1258.48 89.69L1209.6 83q3.19-4.84 6.52-9.42l48.88 6.69q-3.33 4.58-6.52 9.42"/><path class="cls-29" d="M1265 80.27l-48.88-6.72q3.23-4.44 6.6-8.62l48.88 6.72q-3.37 4.17-6.6 8.62"/><path class="cls-30" d="M1271.6 71.65l-48.88-6.72q3.39-4.21 6.93-8.12l48.88 6.72q-3.54 3.91-6.93 8.12"/><path class="cls-31" d="M1278.52 63.52l-48.88-6.72q3.74-4.14 7.66-7.94l48.88 6.72q-3.91 3.79-7.66 7.94"/><path class="cls-32" d="M1286.18 55.58l-48.88-6.72q4.52-4.38 9.28-8.26l48.88 6.72q-4.76 3.88-9.28 8.26"/><path class="cls-33" d="M1295.46 47.32l-48.88-6.72a121.17 121.17 0 0 1 18.28-12.38l1.3-.7 48.84 6.72-1.3.7a121.17 121.17 0 0 0-18.28 12.38"/><path class="cls-34" d="M1315 34.24l-48.88-6.72q1.66-.88 3.35-1.7l48.88 6.72q-1.69.82-3.35 1.7"/><path class="cls-35" d="M1318.39 32.53l-48.88-6.72a104.7 104.7 0 0 1 14.84-5.89l48.88 6.72a104.7 104.7 0 0 0-14.84 5.89"/></g></g></g><g class="cls-7"><path class="cls-2" d="M1049.32 458.32l-48.88-6.72a53.79 53.79 0 0 0 32.69-5.4l48.88 6.72a53.79 53.79 0 0 1-32.69 5.4z"/><g class="cls-36"><g class="cls-7"><path class="cls-37" d="M1049.32 458.32l-48.88-6.72.9.12 48.88 6.72-.9-.12"/><path class="cls-38" d="M1050.23 458.44l-48.88-6.72q1.75.22 3.52.33l48.88 6.72q-1.76-.11-3.52-.33"/><path class="cls-39" d="M1053.75 458.77l-48.88-6.72q1.81.12 3.64.12l48.88 6.72q-1.82 0-3.64-.12"/><path class="cls-40" d="M1057.38 458.89l-48.88-6.72q1.92 0 3.84-.13l48.88 6.72q-1.92.13-3.84.13"/><path class="cls-41" d="M1061.23 458.76l-48.88-6.76q2.12-.14 4.24-.46l48.88 6.72q-2.12.32-4.24.46"/><path class="cls-42" d="M1065.47 458.3l-48.88-6.72a52.36 52.36 0 0 0 5.18-1l48.88 6.72a52.36 52.36 0 0 1-5.18 1"/><path class="cls-43" d="M1070.65 457.26l-48.88-6.72a52.7 52.7 0 0 0 11.2-4.25l48.88 6.72a52.7 52.7 0 0 1-11.2 4.25"/><path class="cls-44" d="M1081.85 453l-48.85-6.7.16-.08 48.88 6.72-.16.08"/></g></g></g><g class="cls-7"><path class="cls-3" d="M1052.33 458.63l-48.88-6.72c-19.5-2.68-37.55-14.13-50-26.5-15-14.88-27-33.52-38.66-51.57-5.86-9.08-11.92-18.45-18.27-27.24-22-30.48-45.11-47.52-68.63-50.75l48.88 6.72c23.52 3.23 46.59 20.27 68.63 50.75 6.35 8.79 12.41 18.16 18.27 27.24 11.64 18 23.68 36.69 38.66 51.57 12.44 12.37 30.49 23.82 50 26.5z"/><g class="cls-45"><g class="cls-7"><path class="cls-46" d="M1052.33 458.63l-48.88-6.72c-19.5-2.68-37.55-14.13-50-26.5-15-14.88-27-33.52-38.66-51.57-5.86-9.08-11.92-18.45-18.27-27.24-22-30.48-45.11-47.52-68.63-50.75l48.88 6.72c23.52 3.23 46.59 20.27 68.63 50.75 6.35 8.79 12.41 18.16 18.27 27.24 11.64 18 23.68 36.69 38.66 51.57 12.45 12.36 30.5 23.82 50 26.5"/></g></g></g><g class="cls-7"><path class="cls-4" d="M483.93 838.35l-48.88-6.72a65 65 0 0 0 25.77-1.53 72.22 72.22 0 0 0 16.07-6.49c32.82-18 54.44-60.41 72.38-99.85 15.9-35 31.72-71.17 47-106.17 30.61-70 62.28-142.46 96.16-208.65 14.94-29.18 29.92-52.25 48.58-74.78 10.78-13 22.77-23.16 35.15-29.94 12.94-7.09 26.3-10.53 39.17-9.82q2.51.14 5 .48l48.88 6.72q-2.51-.34-5-.48c-12.86-.71-26.23 2.73-39.17 9.82-12.38 6.78-24.36 16.91-35.15 29.94-18.66 22.53-33.64 45.6-48.58 74.78-33.88 66.19-65.55 138.61-96.16 208.65-15.32 35-31.13 71.2-47 106.17-17.94 39.44-39.56 81.86-72.38 99.85a72.22 72.22 0 0 1-16.07 6.49 65 65 0 0 1-25.77 1.53z"/><g class="cls-47"><g class="cls-7"><path class="cls-48" d="M483.93 838.35l-48.88-6.72 1 .13 48.88 6.72-1-.13"/><path class="cls-49" d="M484.95 838.48l-48.88-6.72q2 .24 3.95.37l48.88 6.72q-2-.13-3.95-.37"/><path class="cls-50" d="M488.9 838.85l-48.9-6.71q2.08.13 4.15.14L493 839q-2.07 0-4.15-.14"/><path class="cls-51" d="M493 839l-48.88-6.72q2.25 0 4.49-.15l48.88 6.72q-2.24.15-4.49.15"/><path class="cls-52" d="M497.53 838.84l-48.88-6.72q2.54-.17 5.06-.54l48.88 6.72q-2.52.37-5.06.54"/><path class="cls-53" d="M502.59 838.3l-48.88-6.72q3.09-.46 6.14-1.22l48.88 6.72q-3 .77-6.14 1.22"/><path class="cls-54" d="M508.74 837.07l-48.88-6.72 1-.25a71.26 71.26 0 0 0 12.85-4.82l48.84 6.72a71.26 71.26 0 0 1-12.85 4.82l-1 .25"/><path class="cls-55" d="M522.55 832l-48.88-6.72q1.17-.57 2.32-1.18l48.88 6.72q-1.15.61-2.32 1.18"/><path class="cls-56" d="M524.86 830.82L476 824.11l.91-.49a87.27 87.27 0 0 0 13.09-8.91l48.88 6.72a87.27 87.27 0 0 1-13.14 8.91l-.91.49"/><path class="cls-57" d="M538.91 821.42L490 814.71q3.57-2.9 6.94-6.19l48.88 6.72q-3.38 3.28-6.94 6.19"/><path class="cls-58" d="M545.85 815.24L497 808.52q3-2.89 5.81-6l48.88 6.72q-2.84 3.14-5.81 6"/><path class="cls-59" d="M551.66 809.2l-48.88-6.72q2.75-3 5.38-6.31L557 802.9q-2.63 3.26-5.38 6.31"/><path class="cls-60" d="M557 802.9l-48.88-6.72q2.69-3.34 5.26-6.88l48.92 6.7q-2.57 3.54-5.26 6.88"/><path class="cls-61" d="M562.3 796l-48.88-6.72q2.73-3.75 5.32-7.7l48.88 6.72q-2.6 3.94-5.32 7.7"/><path class="cls-62" d="M567.62 788.32l-48.88-6.72q2.92-4.42 5.68-9l48.88 6.72q-2.77 4.62-5.68 9"/><path class="cls-63" d="M573.31 779.28l-48.88-6.72q3.24-5.39 6.29-11l48.88 6.72q-3.06 5.59-6.29 11"/><path class="cls-64" d="M579.59 768.28l-48.88-6.72c2.61-4.78 5.13-9.65 7.57-14.56l48.88 6.72c-2.44 4.91-5 9.78-7.57 14.56"/><path class="cls-65" d="M587.16 753.72L538.28 747c3.84-7.72 7.48-15.54 11-23.24q2.47-5.44 4.94-10.91l48.88 6.72q-2.47 5.47-4.94 10.91c-3.5 7.7-7.14 15.51-11 23.24"/><path class="cls-66" d="M603.08 719.58l-48.88-6.72c14.23-31.55 28.36-63.88 42.09-95.26 13.61-31.14 27.42-62.74 41.55-94.07l48.88 6.72c-14.13 31.32-27.94 62.93-41.55 94.07-13.73 31.38-27.86 63.71-42.09 95.26"/><path class="cls-67" d="M686.73 530.25l-48.88-6.72c14.58-32.34 29.5-64.37 44.86-95.26l48.88 6.73c-15.36 30.89-30.27 62.92-44.86 95.26"/><path class="cls-68" d="M731.59 435l-48.88-6.72q4.84-9.74 9.75-19.32 3.3-6.44 6.61-12.51l48.88 6.72q-3.32 6.07-6.61 12.51-4.9 9.58-9.75 19.32"/><path class="cls-69" d="M747.95 403.15l-48.88-6.72c2.94-5.38 5.9-10.55 8.91-15.57l48.88 6.72c-3 5-6 10.19-8.91 15.57"/><path class="cls-70" d="M756.86 387.59L708 380.87q4.35-7.24 8.86-14.08l48.88 6.72q-4.52 6.85-8.86 14.08"/><path class="cls-71" d="M765.71 373.51l-48.88-6.72c3.1-4.7 6.28-9.29 9.56-13.8l48.88 6.72c-3.28 4.51-6.46 9.09-9.56 13.8"/><path class="cls-72" d="M775.27 359.71L726.39 353c3.64-5 7.41-9.93 11.34-14.8l48.88 6.72c-3.93 4.87-7.7 9.79-11.34 14.8"/><path class="cls-73" d="M786.62 344.91l-48.88-6.72q1.63-2 3.3-4 2.1-2.54 4.26-4.93l48.87 6.74q-2.16 2.39-4.26 4.93-1.67 2-3.3 4"/><path class="cls-74" d="M794.17 336l-48.88-6.72q3.16-3.5 6.44-6.68l48.88 6.72q-3.27 3.18-6.44 6.68"/><path class="cls-75" d="M800.61 329.28l-48.88-6.72q4-3.9 8.18-7.29l48.88 6.73q-4.16 3.39-8.18 7.29"/><path class="cls-76" d="M808.79 322l-48.88-6.72a107.74 107.74 0 0 1 16.27-11l1.36-.73 48.88 6.72-1.36.73a107.74 107.74 0 0 0-16.27 11"/><path class="cls-77" d="M826.42 310.21l-48.88-6.72q1.28-.68 2.57-1.31L829 308.9q-1.29.63-2.57 1.31"/><path class="cls-78" d="M829 308.9l-48.88-6.72a81 81 0 0 1 15.88-5.83l48.88 6.72A81 81 0 0 0 829 308.9"/><path class="cls-79" d="M844.84 303.06L796 296.35q3.38-.84 6.76-1.34l48.88 6.72q-3.37.5-6.76 1.34"/><path class="cls-80" d="M851.6 301.72L802.72 295q2.57-.38 5.12-.55l48.88 6.72q-2.55.17-5.12.55"/><path class="cls-81" d="M856.72 301.17l-48.88-6.72q2.14-.14 4.27-.14L861 301q-2.13 0-4.27.14"/><path class="cls-82" d="M861 301l-48.88-6.72q1.62 0 3.23.09h.51l48.88 6.72h-.51q-1.62-.09-3.23-.09"/><path class="cls-83" d="M864.73 301.15l-48.88-6.72q1.8.12 3.6.34l48.88 6.72q-1.8-.22-3.6-.34"/><path class="cls-84" d="M868.34 301.49l-48.88-6.72.91.12 48.88 6.72-.91-.12"/></g></g></g></g><g class="cls-7"><path class="cls-85" d="M453.05 830.11c-.09-.17-.19-.33-.28-.5a43.45 43.45 0 0 1-2.4-6A105.5 105.5 0 0 1 430.74 805c-18.24-22.1-30.91-52.77-38.74-93.73-1.22-6.36-2.29-12.79-3.26-19.25l-48.88-6.72c1 6.46 2 12.89 3.26 19.25 7.83 41 20.51 71.63 38.74 93.76 15.83 19.22 36.07 31 56.51 33.86l16.2 2.23c-.57-1.4-1.05-2.85-1.52-4.29z"/><path class="cls-86" d="M388.74 692l-48.88-6.72c-2.53-16.84-4.34-33.9-6.12-50.56s-3.57-33.55-6.08-50.32l48.88 6.72c2.52 16.77 4.31 33.7 6.08 50.32s3.59 33.72 6.12 50.56"/><path class="cls-87" d="M376.54 591.14l-48.88-6.72c-2-13.27-4.43-26.44-7.66-39.27-11.79-46.88-41.2-100.62-88.35-110.86q-3-.65-5.92-1l48.88 6.71q3 .41 5.92 1c47.15 10.24 76.56 64 88.35 110.86 3.23 12.83 5.67 26 7.66 39.27"/></g><g class="cls-7"><path class="cls-5" d="M230.91 433.57l48.88 6.72c-21.93-3-43.2 3.47-62.11 13.83l-48.88-6.72c18.9-10.4 40.2-16.84 62.11-13.83z"/><g class="cls-88"><g class="cls-7"><path class="cls-89" d="M217.67 454.12l-48.88-6.72 2.17-1.17 48.89 6.77-2.17 1.17"/><path class="cls-90" d="M219.85 453L171 446.24l4-2 48.88 6.72-4 2"/><path class="cls-91" d="M223.86 450.92L175 444.21a118.59 118.59 0 0 1 23.19-8.6l48.81 6.72a118.59 118.59 0 0 0-23.19 8.6"/><path class="cls-92" d="M247 442.33l-48.88-6.72q4.59-1.14 9.26-1.84l48.88 6.72q-4.68.69-9.26 1.84"/><path class="cls-93" d="M256.31 440.48l-48.88-6.72q3.44-.51 6.92-.74l48.88 6.72q-3.48.23-6.92.74"/><path class="cls-94" d="M263.23 439.74L214.35 433q2.86-.19 5.75-.19l48.9 6.74q-2.89 0-5.75.19"/><path class="cls-95" d="M269 439.55l-48.88-6.72q2.52 0 5.05.16l48.83 6.72q-2.53-.16-5.05-.16"/><path class="cls-96" d="M274 439.71L225.16 433q2.3.15 4.61.43l48.88 6.72q-2.31-.28-4.61-.43"/><path class="cls-97" d="M278.65 440.14l-48.88-6.72 1.14.15 48.88 6.72-1.14-.15"/></g></g></g><g class="cls-7"><path class="cls-6" d="M48.88 770.78L0 764.06c6.09-101.62 47.9-200.52 113.08-271.39 12.88-14 32.51-32.55 55.72-45.26l48.88 6.72c-23.2 12.71-42.84 31.27-55.72 45.26C96.78 570.26 55 669.15 48.88 770.78z"/><g class="cls-98"><g class="cls-7"><path class="cls-99" d="M48.88 770.78L0 764.06Q.3 759 .72 754l48.88 6.72q-.42 5-.72 10.1"/><path class="cls-100" d="M49.6 760.68L.72 754q.78-9.35 2-18.66L51.56 742q-1.17 9.3-2 18.66"/><path class="cls-101" d="M51.56 742l-48.88-6.69q1.12-8.9 2.6-17.74l48.88 6.72q-1.48 8.84-2.6 17.74"/><path class="cls-102" d="M54.16 724.29l-48.88-6.71q1.43-8.58 3.19-17.06l48.88 6.72q-1.76 8.49-3.19 17.05"/><path class="cls-103" d="M57.35 707.24l-48.88-6.72q1.72-8.32 3.75-16.57l48.88 6.72q-2 8.24-3.75 16.57"/><path class="cls-104" d="M61.1 690.67L12.22 684q2-8.14 4.3-16.19l48.88 6.72q-2.3 8-4.3 16.19"/><path class="cls-105" d="M65.41 674.49l-48.88-6.72q2.28-8 4.85-15.89l48.88 6.72q-2.57 7.89-4.85 15.89"/><path class="cls-106" d="M70.26 658.6l-48.88-6.72q2.57-7.89 5.41-15.66l48.88 6.72q-2.84 7.77-5.41 15.66"/><path class="cls-107" d="M75.66 642.94l-48.88-6.72q2.86-7.81 6-15.49l48.88 6.72q-3.13 7.68-6 15.49"/><path class="cls-108" d="M81.65 627.44l-48.88-6.72q3.16-7.76 6.6-15.37l48.88 6.72q-3.43 7.61-6.6 15.37"/><path class="cls-109" d="M88.25 612.07l-48.88-6.72q3.49-7.73 7.25-15.3l48.88 6.72q-3.76 7.57-7.25 15.3"/><path class="cls-110" d="M95.5 596.77l-48.88-6.72q3.85-7.75 8-15.32l48.88 6.72q-4.13 7.56-8 15.32"/><path class="cls-111" d="M103.49 581.45l-48.88-6.72q4.26-7.8 8.82-15.39l48.88 6.72q-4.55 7.58-8.82 15.39"/><path class="cls-112" d="M112.31 566.06l-48.88-6.72q4.73-7.88 9.76-15.51l48.88 6.72q-5 7.63-9.76 15.51"/><path class="cls-113" d="M122.07 550.56l-48.88-6.72q5.28-8 10.88-15.7l48.93 6.71q-5.6 7.7-10.88 15.7"/><path class="cls-114" d="M133 534.85l-48.88-6.72q6-8.26 12.37-16.15l48.88 6.72Q139 526.59 133 534.85"/><path class="cls-115" d="M145.33 518.7L96.45 512q6.92-8.58 14.26-16.71l48.88 6.71q-7.34 8.12-14.26 16.71"/><path class="cls-116" d="M159.59 502l-48.88-6.72 2.37-2.6c3.29-3.58 7-7.45 11.15-11.45l48.88 6.72c-4.12 4-7.86 7.88-11.15 11.45l-2.37 2.6"/><path class="cls-117" d="M173.11 487.93l-48.88-6.72c4.87-4.73 10.29-9.63 16.16-14.42l48.88 6.72c-5.87 4.79-11.29 9.69-16.16 14.42"/><path class="cls-118" d="M189.27 473.51l-48.88-6.72a189.5 189.5 0 0 1 28.41-19.39l48.88 6.72a189.5 189.5 0 0 0-28.41 19.39"/></g></g></g></g></g></svg>