<svg xmlns="http://www.w3.org/2000/svg" viewBox="0 0 14.03 13.56"><defs><style>.cls-1{fill:#fff;opacity:.5}</style></defs><title>ic_attach</title><g id="Layer_2" data-name="Layer 2"><path class="cls-1" d="M2.38 13.56a2.24 2.24 0 0 1-1.63-.71 2.59 2.59 0 0 1 0-3.65L8.61.86A2.77 2.77 0 0 1 10 .07a2.89 2.89 0 0 1 1.59.1 3.94 3.94 0 0 1 1.49.94 3.84 3.84 0 0 1 .4.51 3 3 0 0 1 .3.59 3.71 3.71 0 0 1 .18.65 3.86 3.86 0 0 1 .06.68A3.41 3.41 0 0 1 13 6l-5.9 6.28a.41.41 0 0 1-.3.14.41.41 0 0 1-.31-.12.43.43 0 0 1-.14-.3.44.44 0 0 1 .12-.32l5.95-6.32a2.56 2.56 0 0 0 .74-1.83 2.36 2.36 0 0 0-.7-1.79 3 3 0 0 0-1-.68A2.12 2.12 0 0 0 10.34.9a1.87 1.87 0 0 0-1.09.56L1.38 9.8a1.72 1.72 0 0 0 0 2.43 1.58 1.58 0 0 0 .51.35 1.17 1.17 0 0 0 .57.09 1.66 1.66 0 0 0 1.12-.56l6.25-6.64.17-.14.13-.18a1 1 0 0 0 .11-.22 1.08 1.08 0 0 0 .05-.23.46.46 0 0 0 0-.24.79.79 0 0 0-.29-.23.62.62 0 0 0-.46-.23 1.09 1.09 0 0 0-.54.32l-4.7 5a.46.46 0 0 1-.19.12.42.42 0 0 1-.23 0 .4.4 0 0 1-.2-.11A.39.39 0 0 1 3.5 9a.46.46 0 0 1 .12-.31l4.7-5a1.91 1.91 0 0 1 1.13-.6 1.49 1.49 0 0 1 1.2.49 1.42 1.42 0 0 1 .46 1.19 2.08 2.08 0 0 1-.66 1.29l-6.24 6.67a2.6 2.6 0 0 1-1.71.82h-.12z" id="forms"/></g></svg>