<svg xmlns="http://www.w3.org/2000/svg" viewBox="0 0 1702.83 1038.14"><defs><style>.cls-1{fill:#fff;}</style></defs><title>bow1</title><g id="Layer_2" data-name="Layer 2"><g id="web"><path class="cls-1" d="M1676.47,28.12c-6.91,13.28-13.39,27.35-19.65,40.95-47.74,103.72-97.11,211-162.46,293.36-54.47,68.66-114.56,124.23-178.58,165.19-17.66,11.29-51.38,29.8-81.57,29-7.3-4.25-13.85-10.62-19.23-19.72-25.8-43.63-7.36-122.4,18.49-181.57,5.94-13.57,12.41-27.34,18.67-40.65,21.44-45.56,43.6-92.66,49.29-143,3.85-33.94-.55-66.94-12.72-95.43-11.55-27-29.51-47.9-50.55-58.73a92.93,92.93,0,0,0-18.61-7.15l-26.36-7A99.4,99.4,0,0,0,1179.69.8c-33.5-4.11-72.25,7.73-110.7,34.54-40.64,28.35-81.43,72.27-128.35,138.24-24.48,34.41-48.18,71.1-71.1,106.58-30.19,46.74-61.42,95.08-94.74,138.7C705,510.18,637.71,563.14,574.74,576.25a174.8,174.8,0,0,1-57.52,2c-7.69-.94-15.32-2.31-22.89-4-15.67-4.79-31.11-10.44-46.39-16L443,556.35c-17.12-6.27-34.15-12.19-51.23-16.74l-14.13-3.77-1.53-.41-2-.54-1.9-.51-.93-.25-3.29-.88-2.56-.68A268.64,268.64,0,0,0,329,525.32c-23.68-2.91-47.63-1.87-72.16,5.73-24.15,7.48-49.22,23.26-70.59,44.42a226.18,226.18,0,0,0-53.32,84c-9.36,26.14-13,59.71-16.17,89.33-.84,7.81-1.64,15.2-2.5,22.25-1,7.91-1.92,16-2.82,23.73-4.13,35.56-8.4,72.34-18.36,108C76.51,962.06,40,1012.42,0,1031.11l26.36,7c19.94-8.35,39.34-25.65,56.18-49.09A253.65,253.65,0,0,0,120,910c10-35.81,14.27-72.65,18.4-108.27.9-7.77,1.83-15.82,2.82-23.71.88-7.05,1.67-14.45,2.51-22.27,3.18-29.54,6.79-63,16.08-89C186.46,592.44,242.91,551.5,283.17,539c24.46-7.57,48.33-8.6,72-5.7,7.9,1,15.78,2.39,23.64,4.14,12.51,3.82,25,8.22,37.56,12.82l4.95,1.82c19.67,7.22,39.6,14.53,59.94,20l2.34.62,10.57,2.82.84.22,2.87.77h0l3.18.85.36.09,6.19,1.65a264,264,0,0,0,35.81,7.14,175.36,175.36,0,0,0,57.66-2c33.6-7,69-25.73,105.22-55.68,31.24-25.84,63.31-60.17,95.3-102,33.35-43.65,64.59-92,94.8-138.78,22.91-35.47,46.6-72.15,71.07-106.54,46.85-65.86,87.56-109.71,128.11-138,38.28-26.7,76.84-38.5,110.19-34.45,1.94.83,3.86,1.73,5.74,2.69,44.68,23,70.57,86,62.95,153.28-5.67,50-27.78,97-49.16,142.47-6.26,13.33-12.75,27.1-18.69,40.69-14.4,32.94-24.64,67.47-28.85,97.22-5.15,36.4-1.66,65.15,10.35,85.46,7.8,13.19,18.5,21.62,32,25.21l2.34.62,4.2,1.12,3.18.85h0l4,1.07,2.87.77h0l3.18.85,4.2,1.12,2.34.62a57.55,57.55,0,0,0,7.82,1.5,74.27,74.27,0,0,0,17.32,0c25.84-2.91,52.75-17.25,70.78-28.78,64.11-41,124.27-96.65,178.81-165.4C1586.55,287.64,1636,180.3,1683.74,76.5c6.26-13.6,12.73-27.66,19.1-41.36ZM1206.14,7.89l-.34-.09.17,0ZM389.25,540l-3.67-1-7.23-1.93-2.78-.74-1-.28-2.59-.69-4.39-1.17q5.74,1,11.47,2.3,7.07,2.16,14.15,4.55l-1.64-.45Zm90.94,30.74,1.28.36,2.27.61,7.1,1.89.64.17,9.57,2.55.73.2,3.38.9q-5.56-1-11.08-2.2Q487.1,573.05,480.18,570.71Z"/></g></g></svg>