<svg xmlns="http://www.w3.org/2000/svg" viewBox="0 0 1566.7 393.07"><defs><style>.cls-1{fill:#fff;}</style></defs><title>bow3</title><g id="Layer_2" data-name="Layer 2"><g id="web"><path class="cls-1" d="M1503.56,30.48a114.09,114.09,0,0,0-39.91-19.89l-1.48-.39h0l-5-1.34L1453.92,8l-.32-.09-1.45-.39L1447,6.16h0l-3.18-.85-4.2-1.12-2.34-.62A105.46,105.46,0,0,0,1423,.78c-21-2.57-42.67,1.18-63.55,11.4-45.31,22.18-86.88,69.63-127.07,115.52C1180,187.51,1130.47,244,1073.49,249.27a95.91,95.91,0,0,1-19.32-.13c-33-14.26-57.74-46.5-81.88-78-8.6-11.22-17.49-22.82-26.62-33.45a96.72,96.72,0,0,0-49.29-31.19l-26.36-7a109.07,109.07,0,0,0-14.82-2.85c-42.14-5.17-89.81,12.44-128.71,37.21-40.1,25.53-78.75,60.26-116.13,93.86-31,27.87-63.09,56.69-95.86,80.14C431.63,367.16,343.21,393.12,261.15,383q-12.23-1.5-24.27-4.08C147.09,350.16,72.55,275.3,26.36,167.17L0,160.15c22.95,55.77,54,102.48,91.77,139.47s80.32,62.47,126.57,75.74q2.47.71,5,1.37l16.35,4.36.82.22,2.39.64.86.23,3.67,1,2.27.61A274.09,274.09,0,0,0,286.89,391c33.66,4.13,68.65,2.17,104.49-5.89,51.08-11.48,101.44-34.82,149.67-69.34,32.81-23.49,64.9-52.32,95.94-80.21,37.36-33.57,76-68.28,116-93.77,38.8-24.7,86.34-42.28,128.35-37.12l1.15.16a96.81,96.81,0,0,1,36.3,26.69c9.13,10.63,18,22.21,26.6,33.42,17.1,22.32,34.79,45.39,55.11,61.72,12.87,10.34,26.07,17.3,39.84,21l3.06.82,2.55.68,1.19.32,2.39.64.92.25,2.52.67,1.64.44,1.68.45,1,.28,2.59.69.73.2,6,1.61a90.79,90.79,0,0,0,12.35,2.39,96.45,96.45,0,0,0,20.67.26c25.69-2.37,52.46-15.75,81.85-40.9,26.23-22.45,52.27-52.18,77.46-80.93,40.14-45.82,81.64-93.2,126.81-115.32,21.14-10.35,42.47-13.79,62.74-11.3l.91.13c46.81,19.11,83.49,71.44,90.81,142.31l26.36,7C1561.76,103.66,1538.5,57.19,1503.56,30.48ZM1450.34,8l2,.84-4.12-1.1,1.12.12ZM883.42,104.08l-1.33-.35.69.1Zm-656,272.72,2.93.78,2.59.69,1,.28,2.78.74,7.23,1.93,2,.54q-4.75-.84-9.46-1.85Q232,378.44,227.44,376.81Z"/></g></g></svg>